<mxfile host="app.diagrams.net" agent="Mozilla/5.0 (X11; Ubuntu; Linux x86_64; rv:137.0) Gecko/20100101 Firefox/137.0" version="26.2.8">
  <diagram name="Page-1" id="tB99gT7B5s93wwGSlWTz">
    <mxGraphModel dx="985" dy="503" grid="1" gridSize="10" guides="1" tooltips="1" connect="1" arrows="1" fold="1" page="1" pageScale="1" pageWidth="850" pageHeight="1100" math="0" shadow="0">
      <root>
        <mxCell id="0" />
        <mxCell id="1" parent="0" />
        <mxCell id="ph-fqe63J3847FzKXtb2-4" value="" style="edgeStyle=orthogonalEdgeStyle;rounded=0;orthogonalLoop=1;jettySize=auto;html=1;" edge="1" parent="1" source="ph-fqe63J3847FzKXtb2-1" target="ph-fqe63J3847FzKXtb2-2">
          <mxGeometry relative="1" as="geometry" />
        </mxCell>
        <mxCell id="ph-fqe63J3847FzKXtb2-1" value="&lt;div&gt;Title splash&lt;/div&gt;" style="rounded=0;whiteSpace=wrap;html=1;" vertex="1" parent="1">
          <mxGeometry x="160" y="160" width="80" height="40" as="geometry" />
        </mxCell>
        <mxCell id="ph-fqe63J3847FzKXtb2-7" value="" style="edgeStyle=orthogonalEdgeStyle;rounded=0;orthogonalLoop=1;jettySize=auto;html=1;" edge="1" parent="1" source="ph-fqe63J3847FzKXtb2-2" target="ph-fqe63J3847FzKXtb2-5">
          <mxGeometry relative="1" as="geometry" />
        </mxCell>
        <mxCell id="ph-fqe63J3847FzKXtb2-18" value="" style="edgeStyle=orthogonalEdgeStyle;rounded=0;orthogonalLoop=1;jettySize=auto;html=1;" edge="1" parent="1" source="ph-fqe63J3847FzKXtb2-2" target="ph-fqe63J3847FzKXtb2-16">
          <mxGeometry relative="1" as="geometry" />
        </mxCell>
        <mxCell id="ph-fqe63J3847FzKXtb2-2" value="&lt;div&gt;Menu&lt;/div&gt;" style="rounded=0;whiteSpace=wrap;html=1;" vertex="1" parent="1">
          <mxGeometry x="280" y="160" width="80" height="40" as="geometry" />
        </mxCell>
        <mxCell id="ph-fqe63J3847FzKXtb2-6" value="" style="edgeStyle=orthogonalEdgeStyle;rounded=0;orthogonalLoop=1;jettySize=auto;html=1;" edge="1" parent="1" source="ph-fqe63J3847FzKXtb2-5" target="ph-fqe63J3847FzKXtb2-2">
          <mxGeometry relative="1" as="geometry" />
        </mxCell>
        <mxCell id="ph-fqe63J3847FzKXtb2-9" value="" style="edgeStyle=orthogonalEdgeStyle;rounded=0;orthogonalLoop=1;jettySize=auto;html=1;" edge="1" parent="1" source="ph-fqe63J3847FzKXtb2-5" target="ph-fqe63J3847FzKXtb2-8">
          <mxGeometry relative="1" as="geometry" />
        </mxCell>
        <mxCell id="ph-fqe63J3847FzKXtb2-5" value="&lt;div&gt;Settings&lt;/div&gt;" style="rounded=0;whiteSpace=wrap;html=1;" vertex="1" parent="1">
          <mxGeometry x="280" y="80" width="80" height="40" as="geometry" />
        </mxCell>
        <mxCell id="ph-fqe63J3847FzKXtb2-8" value="modifies a settings.txt file" style="rounded=0;whiteSpace=wrap;html=1;" vertex="1" parent="1">
          <mxGeometry x="160" y="80" width="80" height="40" as="geometry" />
        </mxCell>
        <mxCell id="ph-fqe63J3847FzKXtb2-13" value="" style="edgeStyle=orthogonalEdgeStyle;rounded=0;orthogonalLoop=1;jettySize=auto;html=1;" edge="1" parent="1" source="ph-fqe63J3847FzKXtb2-10" target="ph-fqe63J3847FzKXtb2-11">
          <mxGeometry relative="1" as="geometry" />
        </mxCell>
        <mxCell id="ph-fqe63J3847FzKXtb2-20" style="edgeStyle=orthogonalEdgeStyle;rounded=0;orthogonalLoop=1;jettySize=auto;html=1;" edge="1" parent="1" source="ph-fqe63J3847FzKXtb2-10">
          <mxGeometry relative="1" as="geometry">
            <mxPoint x="480" y="180" as="targetPoint" />
          </mxGeometry>
        </mxCell>
        <mxCell id="ph-fqe63J3847FzKXtb2-10" value="Cover" style="rounded=0;whiteSpace=wrap;html=1;" vertex="1" parent="1">
          <mxGeometry x="520" y="160" width="80" height="40" as="geometry" />
        </mxCell>
        <mxCell id="ph-fqe63J3847FzKXtb2-12" style="edgeStyle=orthogonalEdgeStyle;rounded=0;orthogonalLoop=1;jettySize=auto;html=1;entryX=0.5;entryY=0;entryDx=0;entryDy=0;exitX=0.5;exitY=0;exitDx=0;exitDy=0;" edge="1" parent="1" source="ph-fqe63J3847FzKXtb2-11" target="ph-fqe63J3847FzKXtb2-10">
          <mxGeometry relative="1" as="geometry" />
        </mxCell>
        <mxCell id="ph-fqe63J3847FzKXtb2-25" style="edgeStyle=orthogonalEdgeStyle;rounded=0;orthogonalLoop=1;jettySize=auto;html=1;entryX=0.5;entryY=0;entryDx=0;entryDy=0;" edge="1" parent="1" source="ph-fqe63J3847FzKXtb2-11" target="ph-fqe63J3847FzKXtb2-24">
          <mxGeometry relative="1" as="geometry" />
        </mxCell>
        <mxCell id="ph-fqe63J3847FzKXtb2-28" style="edgeStyle=orthogonalEdgeStyle;rounded=0;orthogonalLoop=1;jettySize=auto;html=1;exitX=1;exitY=0.5;exitDx=0;exitDy=0;entryX=0;entryY=0.5;entryDx=0;entryDy=0;" edge="1" parent="1" source="ph-fqe63J3847FzKXtb2-11" target="ph-fqe63J3847FzKXtb2-22">
          <mxGeometry relative="1" as="geometry" />
        </mxCell>
        <mxCell id="ph-fqe63J3847FzKXtb2-29" style="edgeStyle=orthogonalEdgeStyle;rounded=0;orthogonalLoop=1;jettySize=auto;html=1;entryX=0;entryY=0.5;entryDx=0;entryDy=0;" edge="1" parent="1" source="ph-fqe63J3847FzKXtb2-11" target="ph-fqe63J3847FzKXtb2-23">
          <mxGeometry relative="1" as="geometry" />
        </mxCell>
        <mxCell id="ph-fqe63J3847FzKXtb2-31" style="edgeStyle=orthogonalEdgeStyle;rounded=0;orthogonalLoop=1;jettySize=auto;html=1;entryX=0;entryY=0.5;entryDx=0;entryDy=0;" edge="1" parent="1" source="ph-fqe63J3847FzKXtb2-11" target="ph-fqe63J3847FzKXtb2-30">
          <mxGeometry relative="1" as="geometry" />
        </mxCell>
        <mxCell id="ph-fqe63J3847FzKXtb2-11" value="Gameplay" style="rounded=0;whiteSpace=wrap;html=1;" vertex="1" parent="1">
          <mxGeometry x="640" y="160" width="80" height="40" as="geometry" />
        </mxCell>
        <mxCell id="ph-fqe63J3847FzKXtb2-17" value="" style="edgeStyle=orthogonalEdgeStyle;rounded=0;orthogonalLoop=1;jettySize=auto;html=1;" edge="1" parent="1" source="ph-fqe63J3847FzKXtb2-16" target="ph-fqe63J3847FzKXtb2-10">
          <mxGeometry relative="1" as="geometry" />
        </mxCell>
        <mxCell id="ph-fqe63J3847FzKXtb2-19" style="edgeStyle=orthogonalEdgeStyle;rounded=0;orthogonalLoop=1;jettySize=auto;html=1;" edge="1" parent="1" source="ph-fqe63J3847FzKXtb2-16" target="ph-fqe63J3847FzKXtb2-2">
          <mxGeometry relative="1" as="geometry" />
        </mxCell>
        <mxCell id="ph-fqe63J3847FzKXtb2-16" value="Song select" style="rounded=0;whiteSpace=wrap;html=1;" vertex="1" parent="1">
          <mxGeometry x="400" y="160" width="80" height="40" as="geometry" />
        </mxCell>
        <mxCell id="ph-fqe63J3847FzKXtb2-22" value="Bg render engine" style="rounded=0;whiteSpace=wrap;html=1;" vertex="1" parent="1">
          <mxGeometry x="760" y="120" width="80" height="40" as="geometry" />
        </mxCell>
        <mxCell id="ph-fqe63J3847FzKXtb2-23" value="Import beatmap" style="rounded=0;whiteSpace=wrap;html=1;" vertex="1" parent="1">
          <mxGeometry x="760" y="200" width="80" height="40" as="geometry" />
        </mxCell>
        <mxCell id="ph-fqe63J3847FzKXtb2-26" style="edgeStyle=orthogonalEdgeStyle;rounded=0;orthogonalLoop=1;jettySize=auto;html=1;entryX=0.5;entryY=1;entryDx=0;entryDy=0;" edge="1" parent="1" source="ph-fqe63J3847FzKXtb2-24" target="ph-fqe63J3847FzKXtb2-10">
          <mxGeometry relative="1" as="geometry" />
        </mxCell>
        <mxCell id="ph-fqe63J3847FzKXtb2-24" value="Completion" style="rounded=0;whiteSpace=wrap;html=1;" vertex="1" parent="1">
          <mxGeometry x="640" y="240" width="80" height="40" as="geometry" />
        </mxCell>
        <mxCell id="ph-fqe63J3847FzKXtb2-34" style="edgeStyle=orthogonalEdgeStyle;rounded=0;orthogonalLoop=1;jettySize=auto;html=1;entryX=0.5;entryY=1;entryDx=0;entryDy=0;" edge="1" parent="1" source="ph-fqe63J3847FzKXtb2-27" target="ph-fqe63J3847FzKXtb2-24">
          <mxGeometry relative="1" as="geometry" />
        </mxCell>
        <mxCell id="ph-fqe63J3847FzKXtb2-27" value="&lt;div&gt;Highscore registry&lt;/div&gt;" style="rounded=0;whiteSpace=wrap;html=1;" vertex="1" parent="1">
          <mxGeometry x="640" y="320" width="80" height="40" as="geometry" />
        </mxCell>
        <mxCell id="ph-fqe63J3847FzKXtb2-33" style="edgeStyle=orthogonalEdgeStyle;rounded=0;orthogonalLoop=1;jettySize=auto;html=1;entryX=1;entryY=0.5;entryDx=0;entryDy=0;" edge="1" parent="1" source="ph-fqe63J3847FzKXtb2-30" target="ph-fqe63J3847FzKXtb2-27">
          <mxGeometry relative="1" as="geometry">
            <Array as="points">
              <mxPoint x="860" y="180" />
              <mxPoint x="860" y="340" />
            </Array>
          </mxGeometry>
        </mxCell>
        <mxCell id="ph-fqe63J3847FzKXtb2-30" value="score/quality counter" style="rounded=0;whiteSpace=wrap;html=1;" vertex="1" parent="1">
          <mxGeometry x="760" y="160" width="80" height="40" as="geometry" />
        </mxCell>
      </root>
    </mxGraphModel>
  </diagram>
</mxfile>
